<svg width="16" height="16" viewBox="0 0 16 16" fill="none" xmlns="http://www.w3.org/2000/svg">
<g clip-path="url(#clip0_36_242)">
<path fill-rule="evenodd" clip-rule="evenodd" d="M4.69553 0.0981833C3.39323 0.156943 2.26446 0.475341 1.353 1.38295C0.438365 2.29532 0.123922 3.42856 0.065016 4.71732C0.0283984 5.52171 -0.185722 11.5986 0.435182 13.1923C0.853894 14.2675 1.67856 15.0941 2.76355 15.5142C3.26983 15.7111 3.84776 15.8444 4.69553 15.8833C11.7842 16.2041 14.4119 16.0295 15.5199 13.1923C15.7166 12.6873 15.8519 12.1099 15.8893 11.2642C16.2133 4.15737 15.8368 2.61692 14.6013 1.38295C13.6214 0.405461 12.4688 -0.259937 4.69553 0.0981833ZM4.76079 14.454C3.98466 14.4191 3.56357 14.2898 3.28257 14.181C2.57569 13.9062 2.04474 13.3775 1.77171 12.6747C1.29886 11.4638 1.45569 5.71242 1.49788 4.78178C1.53927 3.87019 1.72395 3.03707 2.36714 2.39389C3.16317 1.59982 4.19163 1.21066 11.1943 1.5267C12.1082 1.56799 12.9432 1.75229 13.588 2.39389C14.384 3.18794 14.7788 4.22432 14.4573 11.2001C14.4222 11.9743 14.2925 12.3944 14.1834 12.6747C13.463 14.5209 11.8057 14.7772 4.76079 14.454ZM11.2715 3.7517C11.2715 4.27737 11.699 4.70482 12.2268 4.70482C12.7546 4.70482 13.1828 4.27737 13.1828 3.7517C13.1828 3.22603 12.7546 2.79896 12.2268 2.79896C11.699 2.79896 11.2715 3.22603 11.2715 3.7517ZM3.88994 7.99037C3.88994 10.2423 5.72002 12.0681 7.97757 12.0681C10.2351 12.0681 12.0652 10.2423 12.0652 7.99037C12.0652 5.73842 10.2351 3.91381 7.97757 3.91381C5.72002 3.91381 3.88994 5.73842 3.88994 7.99037ZM5.32439 7.99037C5.32439 6.52931 6.51207 5.34389 7.97757 5.34389C9.44306 5.34389 10.6307 6.52931 10.6307 7.99037C10.6307 9.45223 9.44306 10.638 7.97757 10.638C6.51207 10.638 5.32439 9.45223 5.32439 7.99037Z" fill="white"/>
</g>
<defs>
<clipPath id="clip0_36_242">
<rect width="16" height="16" fill="white"/>
</clipPath>
</defs>
</svg>
