<svg width="16" height="16" viewBox="0 0 16 16" fill="none" xmlns="http://www.w3.org/2000/svg">
<g clip-path="url(#clip0_36_237)">
<path fill-rule="evenodd" clip-rule="evenodd" d="M6.39104 10.0693V5.57983C7.9848 6.32977 9.21916 7.05423 10.679 7.8353C9.47496 8.50307 7.9848 9.25232 6.39104 10.0693ZM15.2731 3.34702C14.9982 2.98481 14.5296 2.70286 14.0308 2.60952C12.5645 2.33108 3.41707 2.33029 1.95161 2.60952C1.55157 2.68451 1.19536 2.86578 0.889352 3.14741C-0.400004 4.34413 0.00401905 10.7618 0.314804 11.8013C0.445492 12.2513 0.614438 12.5758 0.827206 12.7888C1.10133 13.0704 1.47666 13.2644 1.90777 13.3513C3.11505 13.601 9.33472 13.7407 14.0052 13.3888C14.4356 13.3138 14.8165 13.1137 15.1169 12.8201C16.309 11.6281 16.2278 4.8501 15.2731 3.34702Z" fill="white"/>
</g>
<defs>
<clipPath id="clip0_36_237">
<rect width="16" height="16" fill="white"/>
</clipPath>
</defs>
</svg>
