<svg width="16" height="16" viewBox="0 0 16 16" fill="none" xmlns="http://www.w3.org/2000/svg">
<g clip-path="url(#clip0_36_252)">
<path fill-rule="evenodd" clip-rule="evenodd" d="M7.90062 -0.000244141C3.51901 -0.000244141 -0.000190735 3.54747 -0.000190735 7.96655C-0.000190735 11.2466 1.92541 13.9913 4.71421 15.2634C4.71421 13.7694 4.7038 13.962 5.8422 9.10405C5.2166 7.84157 5.70301 5.75718 7.10381 5.75718C9.04781 5.75718 7.72701 8.63938 7.50221 9.77358C7.30301 10.644 7.96701 11.3138 8.76381 11.3138C10.291 11.3138 11.2862 9.37193 11.2862 7.09624C11.2862 5.35538 10.0918 4.08335 8.03342 4.08335C4.37342 4.08335 3.44541 8.1594 4.71421 9.43882C5.03341 9.92203 4.71421 9.94465 4.71421 10.5771C4.49261 11.2459 2.72221 10.2738 2.72221 7.76577C2.72221 5.48928 4.58141 2.81187 8.36541 2.81187C11.3526 2.81187 13.3446 5.02076 13.3446 7.36421C13.3446 10.5103 11.6182 12.7869 9.09581 12.7869C8.23261 12.7869 7.43581 12.3178 7.17021 11.7822C6.68781 13.6586 6.5902 14.6098 5.8422 15.665C6.5726 15.8659 7.30301 15.9998 8.09981 15.9998C12.4814 15.9998 15.9998 12.452 15.9998 8.03374C15.8014 3.54771 12.2822 -0.000244141 7.90062 -0.000244141Z" fill="white"/>
</g>
<defs>
<clipPath id="clip0_36_252">
<rect width="16" height="16" fill="white"/>
</clipPath>
</defs>
</svg>
