<svg width="216" height="64" viewBox="0 0 216 64" fill="none" xmlns="http://www.w3.org/2000/svg">
<rect width="216" height="64" rx="12" fill="#0F1017"/>
<path d="M109.017 34.8033C105.254 34.8033 102.187 37.6657 102.187 41.6081C102.187 45.5265 105.254 48.4129 109.017 48.4129C112.782 48.4129 115.849 45.5265 115.849 41.6081C115.848 37.6657 112.78 34.8033 109.017 34.8033ZM109.017 45.7345C106.955 45.7345 105.177 44.0337 105.177 41.6097C105.177 39.1601 106.956 37.4849 109.017 37.4849C111.08 37.4849 112.857 39.1601 112.857 41.6097C112.857 44.0321 111.08 45.7345 109.017 45.7345ZM94.1148 34.8033C90.3516 34.8033 87.2844 37.6657 87.2844 41.6081C87.2844 45.5265 90.3516 48.4129 94.1148 48.4129C97.8796 48.4129 100.947 45.5265 100.947 41.6081C100.947 37.6657 97.8796 34.8033 94.1148 34.8033ZM94.1148 45.7345C92.0524 45.7345 90.2748 44.0337 90.2748 41.6097C90.2748 39.1601 92.054 37.4849 94.1148 37.4849C96.1772 37.4849 97.9548 39.1601 97.9548 41.6097C97.9564 44.0321 96.1772 45.7345 94.1148 45.7345ZM76.39 36.8929V39.7793H83.2988C83.0924 41.4033 82.5516 42.5889 81.726 43.4129C80.7212 44.4177 79.1484 45.5265 76.39 45.5265C72.1372 45.5265 68.8124 42.0977 68.8124 37.8449C68.8124 33.5921 72.1372 30.1633 76.39 30.1633C78.6844 30.1633 80.3596 31.0657 81.5964 32.2257L83.6332 30.1889C81.9052 28.5393 79.6124 27.2769 76.39 27.2769C70.5644 27.2769 65.6668 32.0193 65.6668 37.8449C65.6668 43.6705 70.5644 48.4129 76.39 48.4129C79.534 48.4129 81.9068 47.3809 83.7612 45.4481C85.6684 43.5409 86.262 40.8593 86.262 38.6945C86.262 38.0257 86.2108 37.4065 86.1068 36.8913H76.39V36.8929ZM148.883 39.1345C148.316 37.6145 146.588 34.8033 143.057 34.8033C139.552 34.8033 136.638 37.5617 136.638 41.6081C136.638 45.4225 139.526 48.4129 143.392 48.4129C146.51 48.4129 148.315 46.5057 149.064 45.3969L146.744 43.8497C145.971 44.9841 144.913 45.7313 143.392 45.7313C141.872 45.7313 140.788 45.0353 140.092 43.6689L149.192 39.9057L148.883 39.1345ZM139.603 41.4033C139.526 38.7729 141.64 37.4337 143.161 37.4337C144.347 37.4337 145.352 38.0273 145.688 38.8769L139.603 41.4033ZM132.206 48.0017H135.195V28.0001H132.206V48.0017ZM127.307 36.3249H127.204C126.534 35.5249 125.244 34.8033 123.622 34.8033C120.219 34.8033 117.1 37.7937 117.1 41.6353C117.1 45.4497 120.219 48.4145 123.622 48.4145C125.246 48.4145 126.534 47.6929 127.204 46.8689H127.307V47.8481C127.307 50.4513 125.915 51.8433 123.673 51.8433C121.843 51.8433 120.708 50.5297 120.244 49.4209L117.641 50.5041C118.388 52.3073 120.372 54.5249 123.673 54.5249C127.179 54.5249 130.144 52.4625 130.144 47.4353V35.2177H127.308V36.3249H127.307ZM123.88 45.7345C121.817 45.7345 120.091 44.0065 120.091 41.6353C120.091 39.2369 121.817 37.4849 123.88 37.4849C125.915 37.4849 127.513 39.2369 127.513 41.6353C127.513 44.0065 125.915 45.7345 123.88 45.7345ZM162.889 28.0001H155.736V48.0017H158.72V40.4241H162.888C166.196 40.4241 169.451 38.0289 169.451 34.2129C169.451 30.3969 166.198 28.0001 162.889 28.0001ZM162.966 37.6401H158.72V30.7841H162.966C165.198 30.7841 166.465 32.6321 166.465 34.2129C166.465 35.7617 165.198 37.6401 162.966 37.6401ZM181.417 34.7681C179.256 34.7681 177.017 35.7201 176.091 37.8305L178.74 38.9361C179.307 37.8305 180.363 37.4689 181.468 37.4689C183.012 37.4689 184.582 38.3953 184.608 40.0417V40.2481C184.067 39.9393 182.908 39.4769 181.494 39.4769C178.638 39.4769 175.729 41.0465 175.729 43.9793C175.729 46.6561 178.072 48.3793 180.696 48.3793C182.702 48.3793 183.809 47.4785 184.504 46.4225H184.606V47.9665H187.489V40.2977C187.491 36.7489 184.838 34.7681 181.417 34.7681ZM181.056 45.7297C180.08 45.7297 178.715 45.2401 178.715 44.0305C178.715 42.4865 180.414 41.8945 181.881 41.8945C183.192 41.8945 183.811 42.1777 184.608 42.5633C184.376 44.4177 182.78 45.7297 181.056 45.7297ZM197.988 35.2049L194.566 43.8769H194.464L190.912 35.2049H187.696L193.022 47.3249L189.985 54.0673H193.099L201.308 35.2049H197.988ZM171.099 48.0017H174.083V28.0001H171.099V48.0017Z" fill="white"/>
<path d="M75.8724 16.3874C75.8724 17.7282 75.4756 18.7954 74.6804 19.5922C73.778 20.5394 72.6004 21.013 71.154 21.013C69.7684 21.013 68.5892 20.533 67.6212 19.573C66.6516 18.6114 66.1668 17.421 66.1668 16.0002C66.1668 14.5778 66.6516 13.3874 67.6212 12.4274C68.5892 11.4658 69.7684 10.9858 71.154 10.9858C71.842 10.9858 72.4996 11.1202 73.1236 11.3874C73.7492 11.6562 74.25 12.013 74.6244 12.4594L73.7812 13.3042C73.146 12.5442 72.2708 12.165 71.1524 12.165C70.1412 12.165 69.2676 12.5202 68.53 13.2306C67.7924 13.941 67.4244 14.8642 67.4244 15.9986C67.4244 17.133 67.7924 18.0562 68.53 18.7666C69.2676 19.477 70.1412 19.8322 71.1524 19.8322C72.2244 19.8322 73.1188 19.4754 73.834 18.7602C74.298 18.2946 74.5668 17.6466 74.6388 16.8162H71.1524V15.6626H75.8036C75.8516 15.9138 75.8724 16.1554 75.8724 16.3874Z" fill="white"/>
<path d="M83.2486 12.3779H78.8774V15.4211H82.8198V16.5747H78.8774V19.6179H83.2486V20.7987H77.6438V11.1987H83.2486V12.3779Z" fill="white"/>
<path d="M88.45 20.7987H87.2164V12.3779H84.5348V11.1987H91.1316V12.3779H88.45V20.7987Z" fill="white"/>
<path d="M95.9043 20.7987V11.1987H97.1379V20.7987H95.9043Z" fill="white"/>
<path d="M102.609 20.7987H101.375V12.3779H98.6934V11.1987H105.29V12.3779H102.609V20.7987Z" fill="white"/>
<path d="M117.778 19.5587C116.834 20.5283 115.661 21.0131 114.258 21.0131C112.855 21.0131 111.682 20.5283 110.739 19.5587C109.795 18.5891 109.325 17.4019 109.325 15.9987C109.325 14.5955 109.795 13.4083 110.739 12.4387C111.682 11.4691 112.855 10.9827 114.258 10.9827C115.653 10.9827 116.824 11.4707 117.771 12.4451C118.719 13.4195 119.192 14.6035 119.192 15.9987C119.192 17.4019 118.72 18.5891 117.778 19.5587ZM111.65 18.7539C112.36 19.4739 113.229 19.8323 114.258 19.8323C115.287 19.8323 116.157 19.4723 116.866 18.7539C117.576 18.0339 117.933 17.1155 117.933 15.9987C117.933 14.8819 117.576 13.9635 116.866 13.2435C116.157 12.5235 115.287 12.1651 114.258 12.1651C113.229 12.1651 112.36 12.5251 111.65 13.2435C110.941 13.9635 110.584 14.8819 110.584 15.9987C110.584 17.1155 110.941 18.0339 111.65 18.7539Z" fill="white"/>
<path d="M120.923 20.7987V11.1987H122.424L127.09 18.6659H127.143L127.09 16.8163V11.1987H128.323V20.7987H127.035L122.154 12.9683H122.101L122.154 14.8179V20.7987H120.923Z" fill="white"/>
<path d="M75.8724 16.3874C75.8724 17.7282 75.4756 18.7954 74.6804 19.5922C73.778 20.5394 72.6004 21.013 71.154 21.013C69.7684 21.013 68.5892 20.533 67.6212 19.573C66.6516 18.6114 66.1668 17.421 66.1668 16.0002C66.1668 14.5778 66.6516 13.3874 67.6212 12.4274C68.5892 11.4658 69.7684 10.9858 71.154 10.9858C71.842 10.9858 72.4996 11.1202 73.1236 11.3874C73.7492 11.6562 74.25 12.013 74.6244 12.4594L73.7812 13.3042C73.146 12.5442 72.2708 12.165 71.1524 12.165C70.1412 12.165 69.2676 12.5202 68.53 13.2306C67.7924 13.941 67.4244 14.8642 67.4244 15.9986C67.4244 17.133 67.7924 18.0562 68.53 18.7666C69.2676 19.477 70.1412 19.8322 71.1524 19.8322C72.2244 19.8322 73.1188 19.4754 73.834 18.7602C74.298 18.2946 74.5668 17.6466 74.6388 16.8162H71.1524V15.6626H75.8036C75.8516 15.9138 75.8724 16.1554 75.8724 16.3874Z" stroke="white" stroke-width="0.290909" stroke-miterlimit="10"/>
<path d="M83.2486 12.3779H78.8774V15.4211H82.8198V16.5747H78.8774V19.6179H83.2486V20.7987H77.6438V11.1987H83.2486V12.3779Z" stroke="white" stroke-width="0.290909" stroke-miterlimit="10"/>
<path d="M88.45 20.7987H87.2164V12.3779H84.5348V11.1987H91.1316V12.3779H88.45V20.7987Z" stroke="white" stroke-width="0.290909" stroke-miterlimit="10"/>
<path d="M95.9043 20.7987V11.1987H97.1379V20.7987H95.9043Z" stroke="white" stroke-width="0.290909" stroke-miterlimit="10"/>
<path d="M102.609 20.7987H101.375V12.3779H98.6934V11.1987H105.29V12.3779H102.609V20.7987Z" stroke="white" stroke-width="0.290909" stroke-miterlimit="10"/>
<path d="M117.778 19.5587C116.834 20.5283 115.661 21.0131 114.258 21.0131C112.855 21.0131 111.682 20.5283 110.739 19.5587C109.795 18.5891 109.325 17.4019 109.325 15.9987C109.325 14.5955 109.795 13.4083 110.739 12.4387C111.682 11.4691 112.855 10.9827 114.258 10.9827C115.653 10.9827 116.824 11.4707 117.771 12.4451C118.719 13.4195 119.192 14.6035 119.192 15.9987C119.192 17.4019 118.72 18.5891 117.778 19.5587ZM111.65 18.7539C112.36 19.4739 113.229 19.8323 114.258 19.8323C115.287 19.8323 116.157 19.4723 116.866 18.7539C117.576 18.0339 117.933 17.1155 117.933 15.9987C117.933 14.8819 117.576 13.9635 116.866 13.2435C116.157 12.5235 115.287 12.1651 114.258 12.1651C113.229 12.1651 112.36 12.5251 111.65 13.2435C110.941 13.9635 110.584 14.8819 110.584 15.9987C110.584 17.1155 110.941 18.0339 111.65 18.7539Z" stroke="white" stroke-width="0.290909" stroke-miterlimit="10"/>
<path d="M120.923 20.7987V11.1987H122.424L127.09 18.6659H127.143L127.09 16.8163V11.1987H128.323V20.7987H127.035L122.154 12.9683H122.101L122.154 14.8179V20.7987H120.923Z" stroke="white" stroke-width="0.290909" stroke-miterlimit="10"/>
<g filter="url(#filter0_ii_15_343)">
<path d="M16.6943 12.0584C16.2287 12.5512 15.9535 13.316 15.9535 14.3064V49.692C15.9535 50.684 16.2287 51.4472 16.6943 51.94L16.8127 52.0552L36.6351 32.2328V31.9992V31.7656L16.8127 11.9416L16.6943 12.0584Z" fill="url(#paint0_linear_15_343)"/>
<path d="M43.2368 38.838L36.6304 32.2284V31.9948V31.7612L43.2384 25.1532L43.3872 25.238L51.216 29.686C53.4512 30.9564 53.4512 33.0348 51.216 34.3068L43.3872 38.7548L43.2368 38.838Z" fill="url(#paint1_linear_15_343)"/>
<g filter="url(#filter1_i_15_343)">
<path d="M43.3896 38.75L36.6312 31.9916L16.692 51.9324C17.428 52.7132 18.6456 52.8092 20.0168 52.0316L43.3896 38.75Z" fill="url(#paint2_linear_15_343)"/>
</g>
<path d="M43.3897 25.2363L20.0169 11.9563C18.6457 11.1771 17.4281 11.2747 16.6921 12.0555L36.6329 31.9963L43.3897 25.2363Z" fill="url(#paint3_linear_15_343)"/>
</g>
<defs>
<filter id="filter0_ii_15_343" x="15.9535" y="11.4185" width="36.9389" height="41.1502" filterUnits="userSpaceOnUse" color-interpolation-filters="sRGB">
<feFlood flood-opacity="0" result="BackgroundImageFix"/>
<feBlend mode="normal" in="SourceGraphic" in2="BackgroundImageFix" result="shape"/>
<feColorMatrix in="SourceAlpha" type="matrix" values="0 0 0 0 0 0 0 0 0 0 0 0 0 0 0 0 0 0 127 0" result="hardAlpha"/>
<feOffset dy="-0.218182"/>
<feComposite in2="hardAlpha" operator="arithmetic" k2="-1" k3="1"/>
<feColorMatrix type="matrix" values="0 0 0 0 0 0 0 0 0 0 0 0 0 0 0 0 0 0 0.12 0"/>
<feBlend mode="normal" in2="shape" result="effect1_innerShadow_15_343"/>
<feColorMatrix in="SourceAlpha" type="matrix" values="0 0 0 0 0 0 0 0 0 0 0 0 0 0 0 0 0 0 127 0" result="hardAlpha"/>
<feOffset dy="0.218182"/>
<feComposite in2="hardAlpha" operator="arithmetic" k2="-1" k3="1"/>
<feColorMatrix type="matrix" values="0 0 0 0 1 0 0 0 0 1 0 0 0 0 1 0 0 0 0.25 0"/>
<feBlend mode="normal" in2="effect1_innerShadow_15_343" result="effect2_innerShadow_15_343"/>
</filter>
<filter id="filter1_i_15_343" x="16.692" y="31.9916" width="26.6976" height="20.5771" filterUnits="userSpaceOnUse" color-interpolation-filters="sRGB">
<feFlood flood-opacity="0" result="BackgroundImageFix"/>
<feBlend mode="normal" in="SourceGraphic" in2="BackgroundImageFix" result="shape"/>
<feColorMatrix in="SourceAlpha" type="matrix" values="0 0 0 0 0 0 0 0 0 0 0 0 0 0 0 0 0 0 127 0" result="hardAlpha"/>
<feOffset dy="-0.218182"/>
<feComposite in2="hardAlpha" operator="arithmetic" k2="-1" k3="1"/>
<feColorMatrix type="matrix" values="0 0 0 0 0 0 0 0 0 0 0 0 0 0 0 0 0 0 0.08 0"/>
<feBlend mode="normal" in2="shape" result="effect1_innerShadow_15_343"/>
</filter>
<linearGradient id="paint0_linear_15_343" x1="34.878" y1="13.932" x2="8.02677" y2="40.7832" gradientUnits="userSpaceOnUse">
<stop stop-color="#00A0FF"/>
<stop offset="0.0066" stop-color="#00A1FF"/>
<stop offset="0.2601" stop-color="#00BEFF"/>
<stop offset="0.5122" stop-color="#00D2FF"/>
<stop offset="0.7604" stop-color="#00DFFF"/>
<stop offset="1" stop-color="#00E3FF"/>
</linearGradient>
<linearGradient id="paint1_linear_15_343" x1="54.1256" y1="31.9948" x2="15.4122" y2="31.9948" gradientUnits="userSpaceOnUse">
<stop stop-color="#FFE000"/>
<stop offset="0.4087" stop-color="#FFBD00"/>
<stop offset="0.7754" stop-color="#FFA500"/>
<stop offset="1" stop-color="#FF9C00"/>
</linearGradient>
<linearGradient id="paint2_linear_15_343" x1="39.7193" y1="35.6619" x2="3.30572" y2="72.0755" gradientUnits="userSpaceOnUse">
<stop stop-color="#FF3A44"/>
<stop offset="1" stop-color="#C31162"/>
</linearGradient>
<linearGradient id="paint3_linear_15_343" x1="11.6704" y1="0.275951" x2="27.9301" y2="16.5356" gradientUnits="userSpaceOnUse">
<stop stop-color="#32A071"/>
<stop offset="0.0685" stop-color="#2DA771"/>
<stop offset="0.4762" stop-color="#15CF74"/>
<stop offset="0.8009" stop-color="#06E775"/>
<stop offset="1" stop-color="#00F076"/>
</linearGradient>
</defs>
</svg>
