<svg width="18" height="18" viewBox="0 0 18 18" fill="none" xmlns="http://www.w3.org/2000/svg">
<g clip-path="url(#clip0_6_329)">
<mask id="mask0_6_329" style="mask-type:luminance" maskUnits="userSpaceOnUse" x="0" y="0" width="18" height="18">
<path d="M18 0H0V18H18V0Z" fill="white"/>
</mask>
<g mask="url(#mask0_6_329)">
<path d="M6.01327 3.37919V12.3658C5.44116 11.8451 4.68131 11.5275 3.84882 11.5275C2.07357 11.5275 0.629272 12.9718 0.629272 14.747C0.629272 16.5223 2.07357 17.9666 3.84882 17.9666C5.62188 17.9666 7.06453 16.5259 7.06823 14.7538L7.06837 8.33225L16.3142 5.5538V10.1998C15.7421 9.67931 14.9823 9.36153 14.1498 9.36153C12.3745 9.36153 10.9302 10.8058 10.9302 12.5811C10.9302 14.3563 12.3745 15.8006 14.1498 15.8006C15.919 15.8006 17.3593 14.3661 17.369 12.5991L17.3693 -0.0334473L6.01327 3.37919Z" fill="white"/>
</g>
</g>
<defs>
<clipPath id="clip0_6_329">
<rect width="18" height="18" fill="white"/>
</clipPath>
</defs>
</svg>
