<svg width="18" height="18" viewBox="0 0 18 18" fill="none" xmlns="http://www.w3.org/2000/svg">
<mask id="mask0_6_299" style="mask-type:luminance" maskUnits="userSpaceOnUse" x="0" y="0" width="18" height="18">
<path d="M18 0H0V18H18V0Z" fill="white"/>
</mask>
<g mask="url(#mask0_6_299)">
<path d="M8.43624 2.41097C8.31879 1.63753 8.08127 0.8546 7.7353 0.0895996C5.93867 0.342232 4.31249 1.12513 3.0199 2.27523L7.48544 6.74081C8.35792 5.63125 8.69514 4.11573 8.43624 2.41097Z" fill="white"/>
<path d="M7.48868 8.23535C6.42218 9.11595 5.05003 9.576 3.5084 9.57604C3.09995 9.57604 2.67976 9.54376 2.25008 9.47855C1.49943 9.36454 0.74276 9.15068 0.000189449 8.84556C-0.000619145 8.89671 -0.00170898 8.94783 -0.00170898 8.99919C-0.00170898 11.2947 0.858178 13.3891 2.27276 14.979L8.25252 8.99919L7.48868 8.23535Z" fill="white"/>
<path d="M6.73739 7.48374L2.27181 3.01819C1.12171 4.31078 0.338814 5.93693 0.0861816 7.73356C0.851217 8.07953 1.63418 8.31712 2.40751 8.43457C4.11238 8.6935 5.62786 8.35621 6.73739 7.48374Z" fill="white"/>
<path d="M15.5886 9.56314C13.8839 9.30418 12.3683 9.64147 11.2588 10.5139L15.7243 14.9795C16.8744 13.6869 17.6573 12.0607 17.91 10.2641C17.145 9.91818 16.3621 9.68063 15.5886 9.56314Z" fill="white"/>
<path d="M9.76332 10.5107L8.99966 9.74707L3.0199 15.7268C4.60977 17.1415 6.70413 18.0013 8.99966 18.0013C9.05102 18.0013 9.10214 18.0002 9.15329 17.9994C8.84821 17.2568 8.63432 16.5001 8.5203 15.7495C8.20882 13.6981 8.64943 11.8598 9.76332 10.5107Z" fill="white"/>
<path d="M8.23535 7.49057L8.99902 8.25423L14.9788 2.27447C13.3889 0.859852 11.2945 0 8.99902 0C8.94765 0 8.89654 0.00108984 8.84538 0.00193359C9.15047 0.744469 9.36436 1.50107 9.47837 2.25183C9.78986 4.30323 9.34924 6.14155 8.23535 7.49057Z" fill="white"/>
<path d="M9.55957 15.5886C9.67699 16.362 9.91461 17.145 10.2606 17.91C12.0572 17.6574 13.6833 16.8745 14.9759 15.7244L10.5103 11.2588C9.6379 12.3684 9.30068 13.8839 9.55957 15.5886Z" fill="white"/>
<path d="M10.5072 9.76165C11.8562 8.64772 13.6945 8.20715 15.7459 8.51863C16.4967 8.63264 17.2533 8.84657 17.9958 9.15162C17.9967 9.10047 17.9978 9.04935 17.9978 8.99795C17.9978 6.70242 17.1379 4.60806 15.7233 3.01819L9.74353 8.99799L10.5072 9.76165Z" fill="white"/>
</g>
</svg>
