<svg width="18" height="18" viewBox="0 0 18 18" fill="none" xmlns="http://www.w3.org/2000/svg">
<g clip-path="url(#clip0_6_372)">
<mask id="mask0_6_372" style="mask-type:luminance" maskUnits="userSpaceOnUse" x="0" y="0" width="18" height="18">
<path d="M18 0H0V18H18V0Z" fill="white"/>
</mask>
<g mask="url(#mask0_6_372)">
<path d="M12.3599 11.1811C14.0747 11.1508 14.4521 8.7918 12.834 8.22998L10.9656 10.2563C11.1987 10.8052 11.7484 11.1811 12.3599 11.1811Z" fill="white"/>
<path d="M17.8933 8.12008C17.6531 6.67897 16.9779 5.56666 15.9296 4.87213C15.4413 5.40212 14.096 6.8606 13.5882 7.41148C14.4051 7.85423 14.9281 8.71158 14.9281 9.6681C14.9338 11.885 12.2586 13.0624 10.6283 11.5653C10.4728 11.9093 10.2548 12.2257 9.98017 12.5004C8.89159 13.6806 5.51967 13.9658 4.08032 13.9239C4.03826 12.481 4.32472 9.11068 5.50388 8.02408C6.10554 7.42274 6.89045 7.11433 7.68064 7.09921C8.54538 6.29914 9.74455 5.18947 10.6058 4.39246C9.40952 4.70769 7.65733 5.54226 7.1229 4.75432C6.8728 4.16405 8.00983 2.79246 7.11271 1.6414C6.37748 0.718249 4.73202 0.891654 3.80215 1.54751C-0.725298 4.6734 -1.33068 11.5413 2.62172 15.3619C7.46018 20.2375 15.9004 18.0287 17.7547 11.4215C17.8554 11.0057 18.1436 9.64243 17.8933 8.12008Z" fill="white"/>
<path d="M9.97978 8.02375C10.2738 8.31774 10.5027 8.65921 10.6595 9.03092C11.2584 8.38234 14.4203 4.95191 14.9453 4.38299L17.7526 1.33829C18.0592 1.00561 18.0673 0.513287 17.7712 0.216835C17.4744 -0.0796168 16.9814 -0.0711768 16.6487 0.236528L12.543 4.03625C11.6516 4.861 9.87843 6.50256 8.96875 7.34434C9.33659 7.49837 9.68087 7.72484 9.97978 8.02375Z" fill="white"/>
<path d="M8.66943 8.36574C7.86844 7.97596 6.89778 8.12074 6.24822 8.76804C5.57732 9.36123 5.1964 11.6187 5.15771 12.8431C6.38565 12.8032 8.63771 12.4245 9.23244 11.7526C9.63123 11.3538 9.85065 10.8239 9.85065 10.2605C9.85055 9.69636 9.63087 9.16637 9.23244 8.76839C9.06364 8.59924 8.87303 8.46491 8.66943 8.36574Z" fill="white"/>
</g>
</g>
<defs>
<clipPath id="clip0_6_372">
<rect width="18" height="18" fill="white"/>
</clipPath>
</defs>
</svg>
