<svg width="18" height="18" viewBox="0 0 18 18" fill="none" xmlns="http://www.w3.org/2000/svg">
<g clip-path="url(#clip0_6_352)">
<mask id="mask0_6_352" style="mask-type:luminance" maskUnits="userSpaceOnUse" x="0" y="0" width="18" height="18">
<path d="M18 0H0V18H18V0Z" fill="white"/>
</mask>
<g mask="url(#mask0_6_352)">
<path d="M17.5364 15.3044L10.4783 8.24625L2.23202 0H1.58757L1.45598 0.334371C1.10867 1.21693 0.960276 2.11961 1.02689 2.94469C1.10283 3.88519 1.46012 4.69944 2.06021 5.29952L8.49767 11.737L9.34676 10.8879L15.2982 17.5427C15.8902 18.1348 16.9092 18.1699 17.5364 17.5427C18.1535 16.9256 18.1535 15.9215 17.5364 15.3044Z" fill="white"/>
<path d="M5.51277 10.2454L0.470976 15.2872C-0.146087 15.9042 -0.146087 16.9083 0.470976 17.5254C1.05717 18.1116 2.07125 18.1633 2.7092 17.5254L7.75103 12.4835L5.51277 10.2454Z" fill="white"/>
<path d="M17.2406 2.99643L14.3806 5.85639L13.6345 5.1103L16.4945 2.25031L15.7484 1.50422L12.8884 4.36418L12.1423 3.6181L15.0023 0.758136L14.2563 0.012085L10.5259 3.74252C10.0695 4.19888 9.79699 4.80483 9.75846 5.44882C9.74872 5.61198 9.71174 5.77247 9.65039 5.92512L12.0737 8.34841C12.2263 8.28699 12.3868 8.25004 12.55 8.2403C13.194 8.20188 13.7999 7.92931 14.2563 7.47295L17.9867 3.74255L17.2406 2.99643Z" fill="white"/>
</g>
</g>
<defs>
<clipPath id="clip0_6_352">
<rect width="18" height="18" fill="white"/>
</clipPath>
</defs>
</svg>
