<svg width="192" height="64" viewBox="0 0 192 64" fill="none" xmlns="http://www.w3.org/2000/svg">
<rect width="192" height="64" rx="12" fill="#0F1017"/>
<path d="M130.441 30.7216V34.3872H128.144V36.7911H130.441V44.9591C130.441 47.7481 131.703 48.8638 134.877 48.8638C135.435 48.8638 135.966 48.7973 136.431 48.7177V46.3403C136.033 46.3802 135.78 46.4067 135.342 46.4067C133.921 46.4067 133.297 45.7427 133.297 44.2286V36.7911H136.431V34.3872H133.297V30.7216H130.441Z" fill="white"/>
<path d="M144.517 49.063C148.741 49.063 151.331 46.2341 151.331 41.5458C151.331 36.8841 148.728 34.0419 144.517 34.0419C140.294 34.0419 137.691 36.8841 137.691 41.5458C137.691 46.2341 140.281 49.063 144.517 49.063ZM144.517 46.5263C142.034 46.5263 140.639 44.7067 140.639 41.5458C140.639 38.4114 142.034 36.5786 144.517 36.5786C146.988 36.5786 148.396 38.4114 148.396 41.5458C148.396 44.6934 146.988 46.5263 144.517 46.5263Z" fill="white"/>
<path d="M153.547 48.7841H156.402V40.2442C156.402 38.2122 157.929 36.8442 160.094 36.8442C160.599 36.8442 161.449 36.9372 161.688 37.0169V34.2013C161.382 34.1216 160.838 34.0817 160.413 34.0817C158.527 34.0817 156.92 35.1177 156.508 36.5388H156.296V34.3208H153.547V48.7841Z" fill="white"/>
<path d="M168.778 36.4724C170.89 36.4724 172.271 37.9466 172.337 40.2177H165.033C165.192 37.9599 166.666 36.4724 168.778 36.4724ZM172.324 44.8794C171.793 46.0083 170.611 46.6325 168.884 46.6325C166.6 46.6325 165.126 45.0255 165.033 42.4888V42.3294H175.246V41.3333C175.246 36.7911 172.816 34.0419 168.791 34.0419C164.714 34.0419 162.124 36.977 162.124 41.5989C162.124 46.2208 164.661 49.063 168.805 49.063C172.112 49.063 174.423 47.4692 175.073 44.8794H172.324Z" fill="white"/>
<path d="M111.716 43.443C111.936 46.9945 114.896 49.2659 119.301 49.2659C124.008 49.2659 126.954 46.8844 126.954 43.0851C126.954 40.098 125.275 38.4461 121.2 37.4963L119.011 36.9594C116.424 36.3537 115.377 35.5415 115.377 34.1237C115.377 32.3341 117.002 31.1641 119.438 31.1641C121.751 31.1641 123.348 32.3066 123.637 34.1374H126.638C126.459 30.7924 123.513 28.4385 119.48 28.4385C115.143 28.4385 112.253 30.7924 112.253 34.3302C112.253 37.2485 113.891 38.9829 117.483 39.8226L120.044 40.4421C122.673 41.0616 123.829 41.9701 123.829 43.4843C123.829 45.2463 122.012 46.5265 119.535 46.5265C116.878 46.5265 115.033 45.3289 114.772 43.443H111.716Z" fill="white"/>
<path d="M82.136 34.0817C80.1703 34.0817 78.4703 35.0645 77.5938 36.7114H77.3813V34.3208H74.6321V53.5919H77.4875V46.5927H77.7133C78.4703 48.12 80.1039 49.0231 82.1625 49.0231C85.8149 49.0231 88.1391 46.1411 88.1391 41.5458C88.1391 36.9505 85.8149 34.0817 82.136 34.0817ZM81.3258 46.4598C78.9352 46.4598 77.4344 44.5739 77.4344 41.5591C77.4344 38.5309 78.9352 36.645 81.3391 36.645C83.7563 36.645 85.2039 38.4911 85.2039 41.5458C85.2039 44.6138 83.7563 46.4598 81.3258 46.4598Z" fill="white"/>
<path d="M98.1308 34.0817C96.1652 34.0817 94.4652 35.0645 93.5886 36.7114H93.3762V34.3208H90.6269V53.5919H93.4824V46.5927H93.7082C94.4652 48.12 96.0988 49.0231 98.1574 49.0231C101.81 49.0231 104.134 46.1411 104.134 41.5458C104.134 36.9505 101.81 34.0817 98.1308 34.0817ZM97.3207 46.4598C94.9301 46.4598 93.4293 44.5739 93.4293 41.5591C93.4293 38.5309 94.9301 36.645 97.334 36.645C99.7512 36.645 101.199 38.4911 101.199 41.5458C101.199 44.6138 99.7512 46.4598 97.3207 46.4598Z" fill="white"/>
<path d="M69.5089 48.7841H72.7851L65.6132 28.9203H62.2957L55.1238 48.7841H58.2899L60.1207 43.5118H67.6918L69.5089 48.7841ZM63.7961 32.5269H64.0301L66.9072 40.9239H60.9053L63.7961 32.5269Z" fill="white"/>
<path d="M57.043 13.935V23.5174H60.5028C63.3583 23.5174 65.0118 21.7576 65.0118 18.6963C65.0118 15.6814 63.345 13.935 60.5028 13.935H57.043ZM58.5305 15.2896H60.3368C62.3223 15.2896 63.4977 16.5514 63.4977 18.7162C63.4977 20.9143 62.3422 22.1627 60.3368 22.1627H58.5305V15.2896Z" fill="white"/>
<path d="M70.0759 23.6568C72.1876 23.6568 73.4825 22.2424 73.4825 19.8982C73.4825 17.5674 72.181 16.1463 70.0759 16.1463C67.9642 16.1463 66.6626 17.5674 66.6626 19.8982C66.6626 22.2424 67.9575 23.6568 70.0759 23.6568ZM70.0759 22.3885C68.8341 22.3885 68.1368 21.4787 68.1368 19.8982C68.1368 18.331 68.8341 17.4146 70.0759 17.4146C71.3111 17.4146 72.015 18.331 72.015 19.8982C72.015 21.4721 71.3111 22.3885 70.0759 22.3885Z" fill="white"/>
<path d="M84.51 16.2857H83.0822L81.794 21.8041H81.6811L80.1936 16.2857H78.8256L77.3381 21.8041H77.2318L75.9369 16.2857H74.4893L76.4815 23.5174H77.949L79.4365 18.1916H79.5494L81.0436 23.5174H82.5244L84.51 16.2857Z" fill="white"/>
<path d="M86.1542 23.5174H87.5819V19.2873C87.5819 18.1584 88.2526 17.4545 89.3085 17.4545C90.3643 17.4545 90.869 18.0322 90.869 19.1943V23.5174H92.2968V18.8357C92.2968 17.1158 91.4069 16.1463 89.7933 16.1463C88.7042 16.1463 87.987 16.631 87.635 17.4346H87.5288V16.2857H86.1542V23.5174Z" fill="white"/>
<path d="M94.5453 23.5174H95.973V13.4635H94.5453V23.5174Z" fill="white"/>
<path d="M101.343 23.6568C103.454 23.6568 104.749 22.2424 104.749 19.8982C104.749 17.5674 103.448 16.1463 101.343 16.1463C99.2309 16.1463 97.9293 17.5674 97.9293 19.8982C97.9293 22.2424 99.2243 23.6568 101.343 23.6568ZM101.343 22.3885C100.101 22.3885 99.4036 21.4787 99.4036 19.8982C99.4036 18.331 100.101 17.4146 101.343 17.4146C102.578 17.4146 103.282 18.331 103.282 19.8982C103.282 21.4721 102.578 22.3885 101.343 22.3885Z" fill="white"/>
<path d="M109.003 22.435C108.226 22.435 107.662 22.0564 107.662 21.4057C107.662 20.7682 108.113 20.4295 109.11 20.3631L110.876 20.2502V20.8545C110.876 21.751 110.079 22.435 109.003 22.435ZM108.638 23.6369C109.588 23.6369 110.378 23.2252 110.81 22.5014H110.922V23.5174H112.297V18.5768C112.297 17.0494 111.274 16.1463 109.461 16.1463C107.821 16.1463 106.652 16.9432 106.506 18.185H107.888C108.047 17.6736 108.598 17.3814 109.395 17.3814C110.371 17.3814 110.876 17.8131 110.876 18.5768V19.201L108.917 19.3139C107.197 19.4201 106.227 20.1705 106.227 21.4721C106.227 22.7935 107.243 23.6369 108.638 23.6369Z" fill="white"/>
<path d="M117.142 23.6369C118.138 23.6369 118.981 23.1654 119.413 22.3752H119.526V23.5174H120.894V13.4635H119.466V17.4346H119.36C118.968 16.6377 118.131 16.1662 117.142 16.1662C115.316 16.1662 114.14 17.6139 114.14 19.8982C114.14 22.1893 115.303 23.6369 117.142 23.6369ZM117.547 17.4478C118.742 17.4478 119.493 18.3975 119.493 19.9049C119.493 21.4189 118.749 22.3553 117.547 22.3553C116.338 22.3553 115.615 21.4322 115.615 19.8982C115.615 18.3775 116.345 17.4478 117.547 17.4478Z" fill="white"/>
<path d="M130.152 23.6568C132.264 23.6568 133.559 22.2424 133.559 19.8982C133.559 17.5674 132.257 16.1463 130.152 16.1463C128.041 16.1463 126.739 17.5674 126.739 19.8982C126.739 22.2424 128.034 23.6568 130.152 23.6568ZM130.152 22.3885C128.911 22.3885 128.213 21.4787 128.213 19.8982C128.213 18.331 128.911 17.4146 130.152 17.4146C131.387 17.4146 132.091 18.331 132.091 19.8982C132.091 21.4721 131.387 22.3885 130.152 22.3885Z" fill="white"/>
<path d="M135.449 23.5174H136.877V19.2873C136.877 18.1584 137.547 17.4545 138.603 17.4545C139.659 17.4545 140.164 18.0322 140.164 19.1943V23.5174H141.591V18.8357C141.591 17.1158 140.702 16.1463 139.088 16.1463C137.999 16.1463 137.282 16.631 136.93 17.4346H136.823V16.2857H135.449V23.5174Z" fill="white"/>
<path d="M148.167 14.4861V16.3189H147.018V17.5209H148.167V21.6049C148.167 22.9994 148.798 23.5572 150.385 23.5572C150.664 23.5572 150.93 23.524 151.162 23.4842V22.2955C150.963 22.3154 150.837 22.3287 150.617 22.3287C149.907 22.3287 149.595 21.9967 149.595 21.2396V17.5209H151.162V16.3189H149.595V14.4861H148.167Z" fill="white"/>
<path d="M153.078 23.5174H154.506V19.2939C154.506 18.1982 155.157 17.4611 156.326 17.4611C157.335 17.4611 157.873 18.0455 157.873 19.201V23.5174H159.301V18.849C159.301 17.1291 158.351 16.1529 156.81 16.1529C155.721 16.1529 154.958 16.6377 154.606 17.4478H154.493V13.4635H153.078V23.5174Z" fill="white"/>
<path d="M164.451 17.3615C165.507 17.3615 166.198 18.0986 166.231 19.2342H162.578C162.658 18.1053 163.395 17.3615 164.451 17.3615ZM166.224 21.565C165.959 22.1295 165.368 22.4416 164.504 22.4416C163.362 22.4416 162.625 21.6381 162.578 20.3697V20.29H167.685V19.792C167.685 17.5209 166.47 16.1463 164.458 16.1463C162.419 16.1463 161.124 17.6139 161.124 19.9248C161.124 22.2357 162.393 23.6568 164.464 23.6568C166.118 23.6568 167.273 22.86 167.599 21.565H166.224Z" fill="white"/>
<path d="M39.6302 32.4767C39.6649 29.7871 41.1093 27.2421 43.4007 25.8334C41.9552 23.7689 39.5339 22.4599 37.0149 22.3811C34.3281 22.0991 31.7234 23.9888 30.3542 23.9888C28.9586 23.9888 26.8506 22.4091 24.5806 22.4558C21.6218 22.5514 18.8635 24.2336 17.424 26.8204C14.3296 32.1778 16.6377 40.0515 19.6019 44.3821C21.0849 46.5027 22.8182 48.8714 25.0861 48.7874C27.3054 48.6953 28.1343 47.3722 30.8131 47.3722C33.4672 47.3722 34.2448 48.7874 36.5587 48.734C38.9401 48.6953 40.4405 46.604 41.8716 44.4634C42.9371 42.9524 43.7571 41.2824 44.301 39.5153C41.5024 38.3317 39.6335 35.5153 39.6302 32.4767Z" fill="white"/>
<path d="M35.2596 19.5331C36.558 17.9743 37.1977 15.9709 37.0428 13.9481C35.0591 14.1564 33.2267 15.1045 31.9107 16.6035C30.6238 18.068 29.9541 20.0362 30.0807 21.9817C32.0652 22.0021 34.0161 21.0797 35.2596 19.5331Z" fill="white"/>
</svg>
